<?xml version="1.0" standalone="no"?><!DOCTYPE svg PUBLIC "-//W3C//DTD SVG 1.1//EN" "http://www.w3.org/Graphics/SVG/1.1/DTD/svg11.dtd"><svg t="1734420790078" class="icon" viewBox="0 0 1024 1024" version="1.1" xmlns="http://www.w3.org/2000/svg" p-id="6690" xmlns:xlink="http://www.w3.org/1999/xlink" width="200" height="200"><path d="M457.088 57.713778L180.195556 112.995556a42.666667 42.666667 0 0 0-34.033778 36.992c-21.674667 189.269333 11.662222 358.229333 100.209778 505.386666 90.695111 150.741333 254.734222 244.622222 488.490666 282.737778a42.666667 42.666667 0 0 0 46.748445-26.951111L881.450667 648.533333a42.666667 42.666667 0 0 0-15.715556-50.318222l-167.495111-115.128889-2.446222-1.564444a42.666667 42.666667 0 0 0-47.601778 2.801778l-86.499556 65.976888-3.555555-2.517333c-45.838222-33.422222-75.235556-80.426667-88.860445-142.947555l100.096-50.915556a42.666667 42.666667 0 0 0 20.380445-53.560889L505.173333 84.024889a42.666667 42.666667 0 0 0-48.085333-26.311111z m-18.375111 90.680889l57.472 147.000889-93.610667 47.644444a42.666667 42.666667 0 0 0-22.954666 43.576889c15.160889 115.598222 70.328889 201.272889 164.039111 252.814222l2.645333 1.336889a42.666667 42.666667 0 0 0 43.804444-4.792889l85.262223-65.066667 114.403555 78.634667-75.349333 198.229333-3.399111-0.654222c-190.250667-37.617778-319.772444-116.48-391.537778-235.733333l-4.380444-7.409778c-69.461333-118.869333-98.773333-253.795556-87.751112-405.902222l0.583112-7.594667 210.773333-42.083555z" fill="#000000" p-id="6691"></path></svg>