<?xml version="1.0" standalone="no"?><!DOCTYPE svg PUBLIC "-//W3C//DTD SVG 1.1//EN" "http://www.w3.org/Graphics/SVG/1.1/DTD/svg11.dtd"><svg t="1734260389653" class="icon" viewBox="0 0 1024 1024" version="1.1" xmlns="http://www.w3.org/2000/svg" p-id="1581" xmlns:xlink="http://www.w3.org/1999/xlink" width="200" height="200"><path d="M512 924.229839c-97.92825 0-195.8565-37.247527-270.351554-111.844909-149.092435-149.092435-149.092435-391.713001 0-540.805436 15.349256-15.349256 40.112721-15.349256 55.461977 0 15.349256 15.349256 15.349256 40.112721 0 55.461977-118.496253 118.496253-118.496253 311.282902 0 429.881483 118.496253 118.496253 311.282902 118.496253 429.881483 0 118.496253-118.496253 118.496253-311.38523 0-429.881483-15.349256-15.349256-15.349256-40.112721 0-55.461977 15.349256-15.349256 40.112721-15.349256 55.461977 0 149.092435 149.092435 149.092435 391.713001 0 540.805436C707.8565 886.982312 609.92825 924.229839 512 924.229839z" p-id="1582"></path><path d="M512 491.073848 512 491.073848 512 491.073848c-13.507345 0-25.786749-5.525732-34.689317-14.325972-8.902568-8.902568-14.325972-21.079644-14.325972-34.689317L462.984711 295.422005 462.984711 148.78545c0-13.507345 5.525732-25.786749 14.325972-34.689317 8.902568-8.902568 21.079644-14.325972 34.689317-14.325972l0 0 0 0c13.507345 0 25.786749 5.525732 34.689317 14.325972 8.902568 8.902568 14.325972 21.079644 14.325972 34.689317l0 146.636554 0 146.636554c0 13.507345-5.525732 25.786749-14.325972 34.689317C537.786749 485.650445 525.507345 491.073848 512 491.073848z" p-id="1583"></path></svg>